<svg height="496pt" viewBox="0 0 496 496" width="496pt" xmlns="http://www.w3.org/2000/svg"><path d="m379.265625 151.617188-2.882813-.007813c-6.03125-.128906-11.949218.414063-17.832031 1.300781-31.277343 4.707032-63.183593 7.089844-94.824219 7.089844h-11.445312l-6.9375-10.40625c-15.6875-23.539062-41.984375-37.59375-70.34375-37.59375h-4.855469c-13.121093 0-26.25 3.105469-37.976562 8.96875-9.183594 4.589844-19.070313 7.039062-29.382813 7.261719l-4.578125.113281c-9.519531.144531-18.613281-2.664062-26.765625-8.769531-11.730468-8.796875-18.433594-22.796875-17.9375-37.4375l2.214844-65.863281c.144531-4.304688-1.414062-8.386719-4.40625-11.472657-2.992188-3.089843-7.007812-4.800781-11.3125-4.800781h-19.054688c-11.546874 0-20.945312 9.390625-20.945312 20.945312 0 3.230469.769531 6.46875 2.207031 9.367188 3.792969 7.574219 5.792969 16.046875 5.792969 24.511719v39.421875c0 23.632812 8.367188 46.691406 24.0625 65.53125 12.679688 15.207031 29.441406 26.117187 48.472656 31.550781l20.273438 5.792969c1.878906.542968 3.191406 2.277344 3.191406 4.238281 0 1.480469-.734375 2.847656-1.960938 3.664063-13.382812 8.921874-23.558593 22.242187-28.65625 37.511718l-4 13.464844h11.097657c9.441406 0 18.765625 1.511719 27.71875 4.496094 14.65625 4.894531 30.921875 4.511718 45.402343-.832032-.960937 8.433594-1.601562 16.921876-1.601562 25.527344 0 10.367188 8.441406 18.808594 18.808594 18.808594 1.640625 0 3.230468-.265625 4.777344-.671875l-15.488282 36.144531c-5.371094 12.527344-8.097656 25.792969-8.097656 39.421875 0 3.679688.199219 7.402344.609375 11.058594l6.695313 60.214844c.199218 1.832031-.433594 3.632812-1.738282 4.945312-8.742187 8.75-13.566406 20.390625-13.566406 32.886719v8h96c8.824219 0 16-7.175781 16-16v-44.273438c0-25.246093 4.480469-49.972656 12.945312-73.351562 25.109376 9.015625 51.34375 13.625 78.132813 13.625h22.144531l6.105469 36.59375c.449219 2.71875.671875 5.46875.671875 8.183594 0 10.679687-3.527344 21.261718-9.945312 29.816406l-2.855469 3.804688c-7.222657 9.625-11.199219 21.5625-11.199219 33.601562v8h96c8.824219 0 16-7.175781 16-16v-29.59375c0-48.421875 8.390625-96.0625 24.945312-141.597656 4.679688-12.878906 7.054688-26.351563 7.054688-40.039063 0-64.371093-52.367188-116.929687-116.734375-117.152343zm-18.34375 17.109374c5.085937-.765624 10.246094-1.132812 15.398437-1.125l2.878907.007813c7.128906.023437 14.082031.816406 20.800781 2.253906v86.136719h-112v-80.457031c24.414062-.910157 48.847656-3.191407 72.921875-6.816407zm-190.777344-40.726562h4.855469c5.769531 0 11.433594.71875 16.878906 2.097656l-6.6875 5.015625c-14.101562 10.574219-34.449218 11.605469-49.519531 2.550781l-.792969-.464843c1.480469-.640625 3-1.199219 4.441406-1.917969 9.511719-4.769531 20.183594-7.28125 30.824219-7.28125zm-2.144531 156.824219c0-40.96875 11.894531-80.335938 34.472656-114.3125 22.488282 13.769531 36.503906 37.640625 37.480469 64.191406-25.367187 11.113281-47.792969 28.296875-65.113281 49.945313l-1.839844 2.304687c-1.480469 1.871094-5 .839844-5-2.128906zm.511719 103.359375c-.34375-3.0625-.511719-6.191406-.511719-9.289063 0-11.453125 2.289062-22.597656 6.800781-33.117187l12.085938-28.210938c1.632812 1.890625 3.328125 3.722656 5.050781 5.523438l-3.5625 12.445312c-2.894531 10.175782-4.375 20.695313-4.375 31.289063 0 12.253906 1.960938 24.359375 5.839844 36l8.808594 26.414062c.894531 2.691407 1.351562 5.496094 1.351562 8.347657 0 5.230468-1.527344 10.292968-4.441406 14.644531l-3.78125 5.671875c-4.417969 6.632812-6.90625 14.21875-7.519532 22.097656h-23.234374c1.351562-5.089844 4.03125-9.753906 7.847656-13.574219 4.761718-4.761719 7.066406-11.328125 6.328125-18.019531zm207.496093 75.816406 2.847657-3.816406c8.480469-11.296875 13.144531-25.289063 13.144531-39.40625 0-3.578125-.296875-7.203125-.886719-10.800782l-5.671875-33.976562h1.847656c.992188 2.175781 1.949219 4.367188 3.015626 6.511719l13.167968 26.335937c2.96875 5.914063 4.527344 12.535156 4.527344 19.152344s-1.558594 13.238281-4.519531 19.160156l-5.558594 11.128906c-3.371094 6.734376-5.265625 14.183594-5.722656 21.710938h-23.375c1.183593-5.777344 3.632812-11.28125 7.183593-16zm97.902344-160.664062c-17.191406 47.296874-25.910156 96.777343-25.910156 147.070312v29.59375h-39.808594c.425782-5.046875 1.761719-10.023438 4.03125-14.558594l5.5625-11.128906c4.0625-8.121094 6.214844-17.222656 6.214844-26.3125s-2.152344-18.191406-6.207031-26.3125l-13.167969-26.335938c-13.488281-26.984374-20.625-57.183593-20.625-87.351562h-16c0 24.472656 4.335938 48.96875 12.664062 72h-33.585937c-24.71875 0-48.933594-4.207031-72.125-12.449219 4.878906-10.871093 10.582031-21.421875 17.277344-31.460937l10.433593-15.648438-13.3125-8.875-10.429687 15.648438c-25.464844 38.175781-38.921875 82.617187-38.921875 128.511718v44.273438h-39.734375c.558594-4.710938 2.175781-9.230469 4.832031-13.222656l3.78125-5.664063c4.65625-6.984375 7.121094-15.121093 7.121094-23.527343 0-4.578126-.734375-9.089844-2.175781-13.410157l-8.800781-26.40625c-3.335938-10-5.023438-20.417969-5.023438-30.945312 0-9.105469 1.265625-18.144531 3.769531-26.878907l11.925781-41.746093-15.390624-4.398438-3.136719 10.960938c-3.070313-3.714844-5.886719-7.609375-8.550781-11.632813 16.582031-20.183594 38.070312-35.992187 62.34375-45.703125l5.039062-2.011719v-7.75c0-36.152343-20.089844-68.65625-52.425781-84.824218l-6.117188-3.054688-3.96875 5.558594c-18.441406 25.808594-30.808593 54.785156-36.953125 85.433594l-3.398437 1.695312c-12.25 6.128906-26.914063 7.167969-39.878907 2.832032-7.066406-2.351563-14.320312-3.929688-21.824218-4.71875 4.398437-8.953126 11.140625-16.699219 19.476562-22.257813 5.691406-3.777344 9.089844-10.128906 9.089844-16.96875 0-9.0625-6.089844-17.136719-14.808594-19.625l-20.269531-5.789063c-15.929687-4.554687-29.953125-13.679687-41.074219-27.015624-12.800781-15.371094-19.847656-34.785157-19.847656-54.683594v-39.421875c0-10.929688-2.585938-21.871094-7.480469-31.664063-.34375-.6875-.519531-1.457031-.519531-2.214844 0-2.730468 2.214844-4.945312 4.945312-4.945312l18.789063-.273438-2.222656 65.875c-.679688 19.863282 8.417969 38.839844 24.800781 51.132813 10.582031 7.9375 23.121094 11.929687 36.320312 11.609375l4.496094-.113281c3.582032-.078125 7.167969-.453125 10.71875-.992188l13.578125 8.144531c9.398438 5.640626 20.140625 8.617188 31.09375 8.617188 12.992188 0 25.863281-4.296875 36.257813-12.089844l14.335937-10.75c9.039063 5.183594 16.941407 12.359375 22.910157 21.3125l11.695312 17.527344h20.007812c2.753907 0 5.519532-.121094 8.273438-.152344v80.152344c0 8.824219 7.175781 16 16 16h112c8.824219 0 16-7.175781 16-16v-81.199219c37.414062 14.871094 64 51.382813 64 93.96875 0 11.816407-2.046875 23.445313-6.089844 34.566407zm0 0"/></svg>